<svg width="53" height="53" viewBox="0 0 53 53" fill="none" xmlns="http://www.w3.org/2000/svg">
<g filter="url(#filter0_d_719_5842)">
<circle cx="26.5" cy="25.5" r="14.5" fill="#F58635"/>
</g>
<path d="M34.9086 25.2184C33.9774 23.9143 32.8244 22.8857 31.4902 22.1571C30.2278 21.4684 28.8123 21.0765 27.3906 21.0153C27.2625 21.0061 27.1312 21 27 21C26.8688 21 26.7375 21.0061 26.6094 21.0153C25.1908 21.0735 23.7722 21.4684 22.5098 22.1571C21.1756 22.8857 20.0257 23.9143 19.0914 25.2184C18.9695 25.3867 18.9695 25.6133 19.0914 25.7816C20.0226 27.0857 21.1756 28.1143 22.5098 28.8429C23.7722 29.5286 25.1877 29.9235 26.6063 29.9847C26.7344 29.9969 26.8656 30 27 30C27.1312 30 27.2625 29.9939 27.3937 29.9847C28.8123 29.9235 30.2309 29.5316 31.4902 28.8429C32.8276 28.1143 33.9774 27.0857 34.9086 25.7816C35.0305 25.6133 35.0305 25.3867 34.9086 25.2184ZM27 29.0204C25.0189 29.0204 23.4066 27.4408 23.4066 25.5C23.4066 23.5592 25.0189 21.9796 27 21.9796C28.9811 21.9796 30.5934 23.5592 30.5934 25.5C30.5934 27.4408 28.9811 29.0204 27 29.0204ZM20.1194 25.5C20.9912 24.3673 22.0724 23.4765 23.2722 22.8765C22.7285 23.6143 22.4067 24.5204 22.4067 25.5C22.4067 26.4796 22.7285 27.3857 23.2722 28.1235C22.0724 27.5235 20.9912 26.6327 20.1194 25.5ZM30.7278 28.1235C31.2715 27.3857 31.5933 26.4796 31.5933 25.5C31.5933 24.5204 31.2715 23.6143 30.7278 22.8765C31.9276 23.4765 33.0088 24.3673 33.8806 25.5C33.0088 26.6327 31.9276 27.5235 30.7278 28.1235ZM27 23.2653C25.7407 23.2653 24.719 24.2694 24.719 25.5C24.719 26.7306 25.7439 27.7347 27 27.7347C28.2593 27.7347 29.281 26.7306 29.281 25.5C29.281 24.2694 28.2561 23.2653 27 23.2653ZM27 26.7551C26.2938 26.7551 25.7189 26.1918 25.7189 25.5C25.7189 24.8082 26.2938 24.2449 27 24.2449C27.7062 24.2449 28.2811 24.8082 28.2811 25.5C28.2811 26.1918 27.7062 26.7551 27 26.7551Z" fill="white"/>
<defs>
<filter id="filter0_d_719_5842" x="0.5" y="0.5" width="52" height="52" filterUnits="userSpaceOnUse" color-interpolation-filters="sRGB">
<feFlood flood-opacity="0" result="BackgroundImageFix"/>
<feColorMatrix in="SourceAlpha" type="matrix" values="0 0 0 0 0 0 0 0 0 0 0 0 0 0 0 0 0 0 127 0" result="hardAlpha"/>
<feOffset dy="1"/>
<feGaussianBlur stdDeviation="5.75"/>
<feComposite in2="hardAlpha" operator="out"/>
<feColorMatrix type="matrix" values="0 0 0 0 0.483577 0 0 0 0 0.483577 0 0 0 0 0.483577 0 0 0 0.1 0"/>
<feBlend mode="normal" in2="BackgroundImageFix" result="effect1_dropShadow_719_5842"/>
<feBlend mode="normal" in="SourceGraphic" in2="effect1_dropShadow_719_5842" result="shape"/>
</filter>
</defs>
</svg>
